<?xml version="1.0" standalone="no"?><!DOCTYPE svg PUBLIC "-//W3C//DTD SVG 1.1//EN"
        "http://www.w3.org/Graphics/SVG/1.1/DTD/svg11.dtd">
<svg t="1672903982202" class="icon" viewBox="0 0 1024 1024" version="1.1" xmlns="http://www.w3.org/2000/svg" p-id="9198"
     width="100%" height="100%">
    <path d="M528.8 984.6a480.526 480.526 0 0 1-48-2.4c-8-0.8-16-1.8-23.8-3-8-1.2-15.8-2.6-23.6-4.2s-15.6-3.4-23.4-5.2c-7.8-2-15.4-4-23.2-6.4-7.6-2.4-15.2-4.8-22.8-7.6s-15-5.6-22.4-8.6c-7.4-3-14.8-6.4-22-9.8-7.2-3.4-14.4-7-21.4-10.8-7-3.8-14-7.8-20.8-11.8-6.8-4.2-13.6-8.4-20.2-12.8s-13.2-9-19.6-13.8c-6.4-4.8-12.8-9.6-19-14.8-6.2-5-12.2-10.4-18.2-15.6-6-5.4-11.8-10.8-17.4-16.6s-11.2-11.4-16.6-17.4c-5.4-6-10.6-12-15.6-18.2-5-6.2-10-12.6-14.8-19-4.8-6.4-9.4-13-13.8-19.6-4.4-6.6-8.8-13.4-12.8-20.2s-8-13.8-11.8-20.8c-3.8-7-7.4-14.2-10.8-21.4-3.4-7.2-6.6-14.6-9.8-22-3-7.4-6-14.8-8.6-22.4-2.6-7.6-5.2-15.2-7.6-22.8s-4.4-15.4-6.4-23.2c-2-7.8-3.8-15.6-5.2-23.4-1.6-7.8-3-15.8-4.2-23.6-1.2-8-2.2-15.8-3-23.8a480.526 480.526 0 0 1-2.4-48c0-198.2 114-376 290.2-452.8 1.6-0.6 3.2-1.2 4.8-1.6 1.6-0.4 3.2-0.8 5-1 1.6-0.2 3.4-0.2 5-0.2s3.4 0.2 5 0.6c1.6 0.4 3.2 0.8 4.8 1.4 1.6 0.6 3.2 1.2 4.6 2 1.4 0.8 3 1.6 4.2 2.6s2.6 2 3.8 3.2c1.2 1.2 2.2 2.4 3.2 3.8s1.8 2.8 2.6 4.2c0.8 1.4 1.4 3 2 4.6s1 3.2 1.4 4.8c0.4 1.6 0.6 3.4 0.6 5s0 3.4-0.2 5-0.6 3.4-1 5-1 3.2-1.6 4.8c-20.2 46.4-31 106-31 172.2 0 232.6 189.2 421.8 421.8 421.8 66.2 0 125.6-10.6 172.2-31 1.6-0.6 3.2-1.2 4.8-1.6s3.2-0.8 5-1c1.6-0.2 3.4-0.2 5-0.2s3.4 0.2 5 0.6c1.6 0.4 3.2 0.8 4.8 1.4 1.6 0.6 3.2 1.2 4.6 2 1.4 0.8 3 1.6 4.2 2.6 1.4 1 2.6 2 3.8 3.2 1.2 1.2 2.2 2.4 3.2 3.8s1.8 2.8 2.6 4.2c0.8 1.4 1.4 3 2 4.6 0.6 1.6 1 3.2 1.4 4.8 0.4 1.6 0.6 3.4 0.6 5s0 3.4-0.2 5-0.6 3.4-1 5-1 3.2-1.6 4.8c-76.2 176.6-254 290.6-452.4 290.6z"
          p-id="9199"></path>
</svg>