<?xml version="1.0" standalone="no"?><!DOCTYPE svg PUBLIC "-//W3C//DTD SVG 1.1//EN"
  "http://www.w3.org/Graphics/SVG/1.1/DTD/svg11.dtd">
<svg t="1671605951267" class="icon" viewBox="0 0 1024 1024" version="1.1" xmlns="http://www.w3.org/2000/svg" p-id="1362"
     xmlns:xlink="http://www.w3.org/1999/xlink" width="100%" height="100%">
  <path
    d="M862 902c0 16.569-13.431 30-30 30H192c-16.569 0-30-13.431-30-30V122c0-16.569 13.431-30 30-30h476l194 194v616z"
    fill="#FFAB4E" p-id="1363"></path>
  <path d="M862 286H698c-16.569 0-30-13.431-30-30V92" fill="#FFFFFF" fill-opacity=".296" p-id="1364"></path>
  <path
    d="M197.64 641h81.6c64.96 0 82.88-23.68 82.88-64 0-27.84-13.12-44.8-39.04-51.52v-1.28c24.32-6.72 32.32-22.4 32.32-45.44 0-40-17.92-59.84-82.88-59.84h-74.88V641z m48.64-130.56v-52.8h16.32c32 0 44.8 3.2 44.8 26.24 0 21.76-13.12 26.56-44.8 26.56h-16.32z m0 91.52v-56.32h22.4c34.56 0 44.16 7.36 44.16 28.16 0 22.72-9.92 28.16-44.16 28.16h-22.4zM400 641h47.36V466.28h1.92l42.24 132.8h48.64l42.88-132.8h1.92V641h48V418.92h-76.8l-38.4 125.12h-1.92l-36.8-125.12H400zM677.24 641h48.64v-68.48h27.2c62.72 0 87.36-20.16 87.36-78.08 0-53.44-20.8-75.52-87.36-75.52h-75.84V641z m48.64-107.52v-76.16h20.8c32.64 0 44.16 9.6 44.16 38.08 0 29.44-11.2 38.08-44.16 38.08h-20.8z"
    fill="#FFFFFF" p-id="1365"></path>
</svg>
