<?xml version="1.0" standalone="no"?><!DOCTYPE svg PUBLIC "-//W3C//DTD SVG 1.1//EN"
  "http://www.w3.org/Graphics/SVG/1.1/DTD/svg11.dtd">
<svg t="1671606035621" class="icon" viewBox="0 0 1024 1024" version="1.1" xmlns="http://www.w3.org/2000/svg" p-id="2818"
     xmlns:xlink="http://www.w3.org/1999/xlink" width="100%" height="100%">
  <path
    d="M862 902c0 16.569-13.431 30-30 30H192c-16.569 0-30-13.431-30-30V122c0-16.569 13.431-30 30-30h476l194 194v616z"
    fill="#FFAB4E" p-id="2819"></path>
  <path d="M862 286H698c-16.569 0-30-13.431-30-30V92" fill="#FFFFFF" fill-opacity=".296" p-id="2820"></path>
  <path
    d="M191.64 418.92V641h76.16c65.28 0 108.16-25.28 108.16-111.04 0-92.48-42.88-111.04-108.16-111.04h-76.16z m48.64 180.48V459.88h24.96c40 0 60.48 12.8 60.48 70.08 0 54.08-19.52 69.44-60.48 69.44h-24.96zM441.68 641h60.8l34.88-140.8h1.92L573.52 641h60.8l50.88-222.08h-50.24l-32.64 164.16h-1.92l-32-142.72h-56.32l-33.92 142.72h-1.92l-32-164.16h-50.88zM856.84 418.92h-164.8v42.56h58.24V641h48.32V461.48h58.24z"
    fill="#FFFFFF" p-id="2821"></path>
</svg>
