<?xml version="1.0" standalone="no"?><!DOCTYPE svg PUBLIC "-//W3C//DTD SVG 1.1//EN"
  "http://www.w3.org/Graphics/SVG/1.1/DTD/svg11.dtd">
<svg t="1671605992125" class="icon" viewBox="0 0 1024 1024" version="1.1" xmlns="http://www.w3.org/2000/svg" p-id="2082"
     xmlns:xlink="http://www.w3.org/1999/xlink" width="100%" height="100%">
  <path
    d="M862 902c0 16.569-13.431 30-30 30H192c-16.569 0-30-13.431-30-30V122c0-16.569 13.431-30 30-30h476l194 194v616z"
    fill="#C076E5" p-id="2083"></path>
  <path d="M862 286H698c-16.569 0-30-13.431-30-30V92" fill="#FFFFFF" fill-opacity=".296" p-id="2084"></path>
  <path
    d="M226.64 418.92V641h76.16c65.28 0 108.16-25.28 108.16-111.04 0-92.48-42.88-111.04-108.16-111.04h-76.16z m48.64 180.48V459.88h24.96c40 0 60.48 12.8 60.48 70.08 0 54.08-19.52 69.44-60.48 69.44h-24.96zM434.96 641h56.32l48-83.2h1.92l45.44 83.2h57.92l-68.48-114.88 66.24-107.2h-56l-44.48 79.36h-1.92l-43.52-79.36h-56.64l64.96 109.12zM810 461.16v-42.24H674.32V641h48.64v-86.4h80.64v-41.92h-80.64v-51.52z"
    fill="#FFFFFF" p-id="2085"></path>
</svg>
