<?xml version="1.0" standalone="no"?><!DOCTYPE svg PUBLIC "-//W3C//DTD SVG 1.1//EN"
  "http://www.w3.org/Graphics/SVG/1.1/DTD/svg11.dtd">
<svg t="1671605968097" class="icon" viewBox="0 0 1024 1024" version="1.1" xmlns="http://www.w3.org/2000/svg" p-id="1658"
     xmlns:xlink="http://www.w3.org/1999/xlink" width="100%" height="100%">
  <path
    d="M862 902c0 16.569-13.431 30-30 30H192c-16.569 0-30-13.431-30-30V122c0-16.569 13.431-30 30-30h476l194 194v616z"
    fill="#FFAB4E" p-id="1659"></path>
  <path d="M862 286H698c-16.569 0-30-13.431-30-30V92" fill="#FFFFFF" fill-opacity=".296" p-id="1660"></path>
  <path
    d="M394 644.2c27.84 0 55.36-4.48 72-9.92v-121.6h-82.88v40.64h37.76v48c-7.36 1.6-14.72 1.92-23.68 1.92-43.52 0-59.52-14.4-59.52-73.28 0-56.32 19.2-72.64 61.76-72.64 19.2 0 39.36 2.88 56 8.96v-42.56c-13.44-5.12-38.4-8-59.84-8-68.8 0-111.04 28.48-111.04 114.24 0 93.12 41.28 114.24 109.44 114.24zM512.4 641h48.64V418.92H512.4zM746 461.16v-42.24H610.32V641h48.64v-86.4h80.64v-41.92h-80.64v-51.52z"
    fill="#FFFFFF" p-id="1661"></path>
</svg>
