<?xml version="1.0" standalone="no"?><!DOCTYPE svg PUBLIC "-//W3C//DTD SVG 1.1//EN"
  "http://www.w3.org/Graphics/SVG/1.1/DTD/svg11.dtd">
<svg t="1671606047873" class="icon" viewBox="0 0 1024 1024" version="1.1" xmlns="http://www.w3.org/2000/svg" p-id="3110"
     xmlns:xlink="http://www.w3.org/1999/xlink" width="100%" height="100%">
  <path
    d="M862 902c0 16.569-13.431 30-30 30H192c-16.569 0-30-13.431-30-30V122c0-16.569 13.431-30 30-30h476l194 194v616z"
    fill="#60C267" p-id="3111"></path>
  <path d="M862 286H698c-16.569 0-30-13.431-30-30V92" fill="#FFFFFF" fill-opacity=".296" p-id="3112"></path>
  <path
    d="M306.76 444.2c21.12 0 25.92-2.88 25.92-24.64s-4.8-24-25.92-24c-20.8 0-25.92 2.24-25.92 24 0 21.76 5.12 24.64 25.92 24.64zM264.52 705c41.28 0 65.28-10.88 65.28-64.64V468.2h-46.4v170.24c0 24-3.2 31.68-24 31.68-5.12 0-11.2-0.32-15.36-1.28v34.56c6.08 0.96 12.8 1.6 20.48 1.6zM474.44 465c-30.4 0-45.44 11.2-52.16 24v-20.8h-46.4V705h46.4v-86.08c6.72 15.36 20.48 25.28 52.16 25.28 56 0 68.8-40 68.8-89.6 0-55.04-12.8-89.6-68.8-89.6z m-14.72 144c-31.68 0-40-21.12-40-54.4 0-34.88 8.32-55.04 40-55.04 31.36 0 36.16 23.36 36.16 55.04 0 29.76-4.16 54.4-36.16 54.4zM694.28 468.2v22.08C687.56 473.96 673.8 465 642.12 465c-56 0-70.08 40.64-70.08 88 0 52.48 14.08 88 70.08 88 31.04 0 44.8-9.28 52.16-24.64v9.28c0 32.96-15.68 43.52-53.12 43.52-15.04 0-32-1.6-45.76-5.12v36.8c14.08 2.56 33.6 4.16 49.28 4.16 71.68 0 95.68-30.08 95.68-77.44V468.2h-46.08z m-38.4 138.88c-32 0-36.16-24.64-36.16-54.08 0-27.84 3.84-53.44 36.16-53.44 34.56 0 40.64 20.48 40.64 53.44 0 34.24-6.08 54.08-40.64 54.08z"
    fill="#FFFFFF" p-id="3113"></path>
</svg>
