<?xml version="1.0" standalone="no"?><!DOCTYPE svg PUBLIC "-//W3C//DTD SVG 1.1//EN"
  "http://www.w3.org/Graphics/SVG/1.1/DTD/svg11.dtd">
<svg t="1671606163728" class="icon" viewBox="0 0 1024 1024" version="1.1" xmlns="http://www.w3.org/2000/svg" p-id="5608"
     xmlns:xlink="http://www.w3.org/1999/xlink" width="100%" height="100%">
  <path
    d="M862 902c0 16.569-13.431 30-30 30H192c-16.569 0-30-13.431-30-30V122c0-16.569 13.431-30 30-30h476l194 194v616z"
    fill="#60C267" p-id="5609"></path>
  <path d="M862 286H698c-16.569 0-30-13.431-30-30V92" fill="#FFFFFF" fill-opacity=".296" p-id="5610"></path>
  <path
    d="M657.464 306.183c69.447 40.095 97.32 124.437 59.952 189.16L677.258 564.9c-37.368 64.724-124.347 82.756-193.794 42.66-14.349-8.284-19.265-26.631-10.98-40.98 8.2-14.205 26.265-19.166 40.548-11.225l0.432 0.244c41.996 24.246 91.85 13.91 111.832-20.7l40.158-69.554c19.982-34.61 4.006-82.954-37.99-107.2-41.995-24.246-91.85-13.91-111.832 20.7l-40.158 69.555c-8.284 14.349-26.632 19.265-40.98 10.98-14.35-8.284-19.266-26.631-10.981-40.98l40.157-69.555c37.369-64.724 124.347-82.756 193.794-42.661z"
    fill="#FFFFFF" p-id="5611"></path>
  <path
    d="M365.536 795.817c-69.447-40.095-97.32-124.437-59.952-189.16l40.158-69.556c37.368-64.724 124.347-82.756 193.794-42.66 14.349 8.284 19.265 26.631 10.98 40.98-8.2 14.205-26.265 19.166-40.548 11.225l-0.432-0.244c-41.996-24.246-91.85-13.91-111.832 20.7l-40.158 69.554c-19.982 34.61-4.006 82.954 37.99 107.2 41.995 24.246 91.85 13.91 111.832-20.7l40.158-69.555c8.284-14.349 26.632-19.265 40.98-10.98 14.35 8.284 19.266 26.631 10.981 40.98l-40.157 69.555c-37.369 64.724-124.347 82.756-193.794 42.661z"
    fill="#FFFFFF" p-id="5612"></path>
</svg>
