<?xml version="1.0" standalone="no"?><!DOCTYPE svg PUBLIC "-//W3C//DTD SVG 1.1//EN"
  "http://www.w3.org/Graphics/SVG/1.1/DTD/svg11.dtd">
<svg t="1671605959356" class="icon" viewBox="0 0 1024 1024" version="1.1" xmlns="http://www.w3.org/2000/svg" p-id="1509"
     xmlns:xlink="http://www.w3.org/1999/xlink" width="100%" height="100%">
  <path
    d="M862 902c0 16.569-13.431 30-30 30H192c-16.569 0-30-13.431-30-30V122c0-16.569 13.431-30 30-30h476l194 194v616z"
    fill="#C076E5" p-id="1510"></path>
  <path d="M862 286H698c-16.569 0-30-13.431-30-30V92" fill="#FFFFFF" fill-opacity=".296" p-id="1511"></path>
  <path
    d="M257 92h70v70h-70zM257 232h70v70h-70zM257 372h70v70h-70zM257 512h70v70h-70zM257 652h70v70h-70zM257 792h70v70h-70z"
    fill="#FFFFFF" p-id="1512"></path>
  <path d="M698 302h70v70h-70zM698 442h70v70h-70zM698 582h70v70h-70zM698 722h70v70h-70zM698 862h70v70h-70z"
        fill="#FFFFFF" p-id="1513"></path>
  <path
    d="M593.941 544.47l-138.743 95.568c-9.096 6.266-21.55 3.971-27.816-5.125a20 20 0 0 1-3.529-11.345V432.432c0-11.045 8.954-20 20-20a20 20 0 0 1 11.345 3.53l138.743 95.567c9.097 6.266 11.392 18.72 5.126 27.816a20 20 0 0 1-5.126 5.126z"
    fill="#FFFFFF" p-id="1514"></path>
</svg>
