<?xml version="1.0" standalone="no"?><!DOCTYPE svg PUBLIC "-//W3C//DTD SVG 1.1//EN"
  "http://www.w3.org/Graphics/SVG/1.1/DTD/svg11.dtd">
<svg t="1671606058666" class="icon" viewBox="0 0 1024 1024" version="1.1" xmlns="http://www.w3.org/2000/svg" p-id="3257"
     xmlns:xlink="http://www.w3.org/1999/xlink" width="100%" height="100%">
  <path
    d="M862 902c0 16.569-13.431 30-30 30H192c-16.569 0-30-13.431-30-30V122c0-16.569 13.431-30 30-30h476l194 194v616z"
    fill="#4895FF" p-id="3258"></path>
  <path d="M862 286H698c-16.569 0-30-13.431-30-30V92" fill="#FFFFFF" fill-opacity=".296" p-id="3259"></path>
  <path
    d="M393.76 465c-25.6 0-44.8 6.72-54.08 24.32C332 473 316.32 465 290.4 465c-24.32 0-39.36 7.36-48.64 22.72V468.2h-46.4V641h46.4V526.12c4.8-16.96 12.8-23.36 32-23.36 18.88 0 25.6 8.96 25.6 32.32V641h46.4V528.04c4.16-18.24 14.08-25.28 32.96-25.28 19.52 0 26.24 8.96 26.24 32.32V641h46.4V526.44c0-43.2-18.88-61.44-57.6-61.44zM590.68 465c-30.4 0-45.44 11.2-52.16 24v-20.8h-46.4V705h46.4v-86.08c6.72 15.36 20.48 25.28 52.16 25.28 56 0 68.8-40 68.8-89.6 0-55.04-12.8-89.6-68.8-89.6z m-14.72 144c-31.68 0-40-21.12-40-54.4 0-34.88 8.32-55.04 40-55.04 31.36 0 36.16 23.36 36.16 55.04 0 29.76-4.16 54.4-36.16 54.4zM844.88 554.28h-24.32V418.92h-54.08L677.2 548.2v45.44h98.88V641h44.48v-47.36h24.32v-39.36z m-128.32 0v-1.92l57.6-85.44h1.92v87.36h-59.52z"
    fill="#FFFFFF" p-id="3260"></path>
</svg>
