<?xml version="1.0" standalone="no"?><!DOCTYPE svg PUBLIC "-//W3C//DTD SVG 1.1//EN"
  "http://www.w3.org/Graphics/SVG/1.1/DTD/svg11.dtd">
<svg t="1671606151088" class="icon" viewBox="0 0 1024 1024" version="1.1" xmlns="http://www.w3.org/2000/svg" p-id="5312"
     xmlns:xlink="http://www.w3.org/1999/xlink" width="100%" height="100%">
  <path
    d="M862 902c0 16.569-13.431 30-30 30H192c-16.569 0-30-13.431-30-30V122c0-16.569 13.431-30 30-30h476l194 194v616z"
    fill="#FF6359" p-id="5313"></path>
  <path d="M862 286H698c-16.569 0-30-13.431-30-30V92" fill="#FFFFFF" fill-opacity=".296" p-id="5314"></path>
  <path
    d="M627.579498 327.776722m-7.764571 28.977775l-94.727771 353.528852q-7.764571 28.977775-36.742346 21.213204l0 0q-28.977775-7.764571-21.213203-36.742347l94.72777-353.528852q7.764571-28.977775 36.742347-21.213203l0 0q28.977775 7.764571 21.213203 36.742346Z"
    fill="#FFFFFF" p-id="5315"></path>
  <path
    d="M614.551831 328.726268c5.486288 6.671274 9.751378 12.915942 12.797461 18.733558C636.893966 365.698642 626.146831 376.906994 650.462485 404.234511c24.315654 27.327517 60.0614 26.208052 76.794976 50.59809 16.734542 24.390297 17.315177 28.648678 19.510288 52.420831 2.194145 23.771894-23.492776 74.570552-26.770242 49.91931-3.278432-24.6515-19.503267-42.787775-31.327354-73.082335-5.384355-13.797719-21.829962-19.055304-41.086699-26.765017-0.701151-0.281048-2.886169-1.380018-6.557435-3.29962a99.988 99.988 0 0 1-34.015467-29.076613L567.711128 371.924962c-10.264493-13.848523-8.838443-33.126309 3.350522-45.314888 11.479416-11.480083 30.091303-11.478933 41.570679-0.000742 0.674139 0.675497 1.315261 1.381488 1.920209 2.118161z"
    fill="#FFFFFF" p-id="5316"></path>
  <path d="M270.398574 649.322917a130.822 87.5 15 1 0 252.728697 67.71845 130.822 87.5 15 1 0-252.728697-67.71845Z"
        fill="#FFFFFF" p-id="5317"></path>
</svg>
