<?xml version="1.0" standalone="no"?><!DOCTYPE svg PUBLIC "-//W3C//DTD SVG 1.1//EN"
  "http://www.w3.org/Graphics/SVG/1.1/DTD/svg11.dtd">
<svg t="1671606136682" class="icon" viewBox="0 0 1024 1024" version="1.1" xmlns="http://www.w3.org/2000/svg" p-id="5165"
     xmlns:xlink="http://www.w3.org/1999/xlink" width="100%" height="100%">
  <path
    d="M862 902c0 16.569-13.431 30-30 30H192c-16.569 0-30-13.431-30-30V122c0-16.569 13.431-30 30-30h476l194 194v616z"
    fill="#FF6359" p-id="5166"></path>
  <path d="M862 286H698c-16.569 0-30-13.431-30-30V92" fill="#FFFFFF" fill-opacity=".296" p-id="5167"></path>
  <path
    d="M234.64 641h48.64v-68.48h27.2c62.72 0 87.36-20.16 87.36-78.08 0-53.44-20.8-75.52-87.36-75.52h-75.84V641z m48.64-107.52v-76.16h20.8c32.64 0 44.16 9.6 44.16 38.08 0 29.44-11.2 38.08-44.16 38.08h-20.8zM437.52 418.92V641h76.16c65.28 0 108.16-25.28 108.16-111.04 0-92.48-42.88-111.04-108.16-111.04h-76.16z m48.64 180.48V459.88h24.96c40 0 60.48 12.8 60.48 70.08 0 54.08-19.52 69.44-60.48 69.44h-24.96zM801.36 461.16v-42.24H665.68V641h48.64v-86.4h80.64v-41.92h-80.64v-51.52z"
    fill="#FFFFFF" p-id="5168"></path>
</svg>
