<?xml version="1.0" standalone="no"?><!DOCTYPE svg PUBLIC "-//W3C//DTD SVG 1.1//EN"
  "http://www.w3.org/Graphics/SVG/1.1/DTD/svg11.dtd">
<svg t="1671606109481" class="icon" viewBox="0 0 1024 1024" version="1.1" xmlns="http://www.w3.org/2000/svg" p-id="4434"
     xmlns:xlink="http://www.w3.org/1999/xlink" width="100%" height="100%">
  <path
    d="M862 902c0 16.569-13.431 30-30 30H192c-16.569 0-30-13.431-30-30V122c0-16.569 13.431-30 30-30h476l194 194v616z"
    fill="#FED754" p-id="4435"></path>
  <path d="M862 286H698c-16.569 0-30-13.431-30-30V92" fill="#FFFFFF" fill-opacity=".296" p-id="4436"></path>
  <path
    d="M308.72 642.92c44.48 0 70.4-14.08 70.4-54.72 0-31.68-9.92-43.2-47.68-52.8-27.2-6.72-32-8.64-32-19.52 0-11.84 5.76-16 27.2-16 15.36 0 34.56 3.84 43.84 6.4l1.92-35.52c-9.28-3.52-28.16-5.76-47.36-5.76-50.24 0-69.12 19.2-69.12 51.52 0 29.12 8.64 40.32 45.76 48.96 27.84 6.72 33.28 10.24 33.28 24s-8.64 17.28-28.8 17.28c-15.68 0-35.52-2.88-52.16-8v38.72c15.36 3.52 34.56 5.44 54.72 5.44zM458.8 641h56.64l63.04-172.8h-49.6l-40.32 124.48h-1.92L447.92 468.2H396.4zM716.72 468.2v22.08C710 473.96 696.24 465 664.56 465c-56 0-70.08 40.64-70.08 88 0 52.48 14.08 88 70.08 88 31.04 0 44.8-9.28 52.16-24.64v9.28c0 32.96-15.68 43.52-53.12 43.52-15.04 0-32-1.6-45.76-5.12v36.8c14.08 2.56 33.6 4.16 49.28 4.16 71.68 0 95.68-30.08 95.68-77.44V468.2h-46.08z m-38.4 138.88c-32 0-36.16-24.64-36.16-54.08 0-27.84 3.84-53.44 36.16-53.44 34.56 0 40.64 20.48 40.64 53.44 0 34.24-6.08 54.08-40.64 54.08z"
    fill="#FFFFFF" p-id="4437"></path>
</svg>
